<?xml version="1.0" encoding="utf-8" standalone="no"?>
<!DOCTYPE svg PUBLIC "-//W3C//DTD SVG 1.1//EN"
  "http://www.w3.org/Graphics/SVG/1.1/DTD/svg11.dtd">
<svg xmlns:xlink="http://www.w3.org/1999/xlink" width="1094.208pt" height="771.515625pt" viewBox="0 0 1094.208 771.515625" xmlns="http://www.w3.org/2000/svg" version="1.1">
 <metadata>
  <rdf:RDF xmlns:dc="http://purl.org/dc/elements/1.1/" xmlns:cc="http://creativecommons.org/ns#" xmlns:rdf="http://www.w3.org/1999/02/22-rdf-syntax-ns#">
   <cc:Work>
    <dc:type rdf:resource="http://purl.org/dc/dcmitype/StillImage"/>
    <dc:date>2024-11-05T07:29:51.281314</dc:date>
    <dc:format>image/svg+xml</dc:format>
    <dc:creator>
     <cc:Agent>
      <dc:title>Matplotlib v3.5.2, https://matplotlib.org/</dc:title>
     </cc:Agent>
    </dc:creator>
   </cc:Work>
  </rdf:RDF>
 </metadata>
 <defs>
  <style type="text/css">*{stroke-linejoin: round; stroke-linecap: butt}</style>
 </defs>
 <g id="figure_1">
  <g id="patch_1">
   <path d="M 0 771.515625 
L 1094.208 771.515625 
L 1094.208 0 
L 0 0 
z
" style="fill: #ffffff"/>
  </g>
  <g id="axes_1">
   <g id="patch_2">
    <path d="M 406.7904 177.275625 
C 406.7904 173.146498 406.610204 169.019338 406.250327 164.905924 
C 405.89045 160.79251 405.351234 156.69676 404.634219 152.630364 
L 264.864 177.275625 
L 406.7904 177.275625 
z
" style="fill: #a1c9f4"/>
   </g>
   <g id="patch_3">
    <path d="M 404.634219 152.630364 
C 400.581514 129.646334 390.921396 108.012893 376.512633 89.65322 
C 362.10387 71.293547 343.386472 56.768304 322.024388 47.368762 
C 300.662303 37.96922 277.30788 33.982419 254.03729 35.76278 
C 230.7667 37.543141 208.290573 45.036295 188.607001 57.576113 
C 168.923429 70.115932 152.633503 87.319477 141.185372 107.657381 
C 129.73724 127.995285 123.480503 150.846475 122.971375 174.179517 
C 122.462246 197.512559 127.716273 220.614915 138.266381 241.432822 
C 148.81649 262.25073 164.340503 280.148457 183.458361 293.534926 
L 264.864 177.275625 
L 404.634219 152.630364 
z
" style="fill: #cfcfcf"/>
   </g>
   <g id="patch_4">
    <path d="M 183.458361 293.534926 
C 204.725006 308.42599 229.675374 317.200167 255.581567 318.89815 
C 281.487759 320.596132 307.369934 315.153696 330.398313 303.165882 
C 353.426693 291.178067 372.730282 273.098286 386.19856 250.903253 
C 399.666838 228.708221 406.790398 203.237416 406.7904 177.275637 
L 264.864 177.275625 
L 183.458361 293.534926 
z
" style="fill: #ffb482"/>
   </g>
   <g id="matplotlib.axis_1"/>
   <g id="matplotlib.axis_2"/>
   <g id="text_1">
    <!-- 2.8% -->
    <g transform="translate(322.345171 176.058179)scale(0.24 -0.24)">
     <defs>
      <path id="ArialMT-32" d="M 3222 541 
L 3222 0 
L 194 0 
Q 188 203 259 391 
Q 375 700 629 1000 
Q 884 1300 1366 1694 
Q 2113 2306 2375 2664 
Q 2638 3022 2638 3341 
Q 2638 3675 2398 3904 
Q 2159 4134 1775 4134 
Q 1369 4134 1125 3890 
Q 881 3647 878 3216 
L 300 3275 
Q 359 3922 746 4261 
Q 1134 4600 1788 4600 
Q 2447 4600 2831 4234 
Q 3216 3869 3216 3328 
Q 3216 3053 3103 2787 
Q 2991 2522 2730 2228 
Q 2469 1934 1863 1422 
Q 1356 997 1212 845 
Q 1069 694 975 541 
L 3222 541 
z
" transform="scale(0.015625)"/>
      <path id="ArialMT-2e" d="M 581 0 
L 581 641 
L 1222 641 
L 1222 0 
L 581 0 
z
" transform="scale(0.015625)"/>
      <path id="ArialMT-38" d="M 1131 2484 
Q 781 2613 612 2850 
Q 444 3088 444 3419 
Q 444 3919 803 4259 
Q 1163 4600 1759 4600 
Q 2359 4600 2725 4251 
Q 3091 3903 3091 3403 
Q 3091 3084 2923 2848 
Q 2756 2613 2416 2484 
Q 2838 2347 3058 2040 
Q 3278 1734 3278 1309 
Q 3278 722 2862 322 
Q 2447 -78 1769 -78 
Q 1091 -78 675 323 
Q 259 725 259 1325 
Q 259 1772 486 2073 
Q 713 2375 1131 2484 
z
M 1019 3438 
Q 1019 3113 1228 2906 
Q 1438 2700 1772 2700 
Q 2097 2700 2305 2904 
Q 2513 3109 2513 3406 
Q 2513 3716 2298 3927 
Q 2084 4138 1766 4138 
Q 1444 4138 1231 3931 
Q 1019 3725 1019 3438 
z
M 838 1322 
Q 838 1081 952 856 
Q 1066 631 1291 507 
Q 1516 384 1775 384 
Q 2178 384 2440 643 
Q 2703 903 2703 1303 
Q 2703 1709 2433 1975 
Q 2163 2241 1756 2241 
Q 1359 2241 1098 1978 
Q 838 1716 838 1322 
z
" transform="scale(0.015625)"/>
      <path id="ArialMT-25" d="M 372 3481 
Q 372 3972 619 4315 
Q 866 4659 1334 4659 
Q 1766 4659 2048 4351 
Q 2331 4044 2331 3447 
Q 2331 2866 2045 2552 
Q 1759 2238 1341 2238 
Q 925 2238 648 2547 
Q 372 2856 372 3481 
z
M 1350 4272 
Q 1141 4272 1002 4090 
Q 863 3909 863 3425 
Q 863 2984 1003 2804 
Q 1144 2625 1350 2625 
Q 1563 2625 1702 2806 
Q 1841 2988 1841 3469 
Q 1841 3913 1700 4092 
Q 1559 4272 1350 4272 
z
M 1353 -169 
L 3859 4659 
L 4316 4659 
L 1819 -169 
L 1353 -169 
z
M 3334 1075 
Q 3334 1569 3581 1911 
Q 3828 2253 4300 2253 
Q 4731 2253 5014 1945 
Q 5297 1638 5297 1041 
Q 5297 459 5011 145 
Q 4725 -169 4303 -169 
Q 3888 -169 3611 142 
Q 3334 453 3334 1075 
z
M 4316 1866 
Q 4103 1866 3964 1684 
Q 3825 1503 3825 1019 
Q 3825 581 3965 400 
Q 4106 219 4313 219 
Q 4528 219 4667 400 
Q 4806 581 4806 1063 
Q 4806 1506 4665 1686 
Q 4525 1866 4316 1866 
z
" transform="scale(0.015625)"/>
     </defs>
     <use xlink:href="#ArialMT-32"/>
     <use xlink:href="#ArialMT-2e" x="55.615234"/>
     <use xlink:href="#ArialMT-38" x="83.398438"/>
     <use xlink:href="#ArialMT-25" x="139.013672"/>
    </g>
   </g>
   <g id="text_2">
    <!-- 62.5% -->
    <g transform="translate(185.08605 111.660293)scale(0.24 -0.24)">
     <defs>
      <path id="ArialMT-36" d="M 3184 3459 
L 2625 3416 
Q 2550 3747 2413 3897 
Q 2184 4138 1850 4138 
Q 1581 4138 1378 3988 
Q 1113 3794 959 3422 
Q 806 3050 800 2363 
Q 1003 2672 1297 2822 
Q 1591 2972 1913 2972 
Q 2475 2972 2870 2558 
Q 3266 2144 3266 1488 
Q 3266 1056 3080 686 
Q 2894 316 2569 119 
Q 2244 -78 1831 -78 
Q 1128 -78 684 439 
Q 241 956 241 2144 
Q 241 3472 731 4075 
Q 1159 4600 1884 4600 
Q 2425 4600 2770 4297 
Q 3116 3994 3184 3459 
z
M 888 1484 
Q 888 1194 1011 928 
Q 1134 663 1356 523 
Q 1578 384 1822 384 
Q 2178 384 2434 671 
Q 2691 959 2691 1453 
Q 2691 1928 2437 2201 
Q 2184 2475 1800 2475 
Q 1419 2475 1153 2201 
Q 888 1928 888 1484 
z
" transform="scale(0.015625)"/>
      <path id="ArialMT-35" d="M 266 1200 
L 856 1250 
Q 922 819 1161 601 
Q 1400 384 1738 384 
Q 2144 384 2425 690 
Q 2706 997 2706 1503 
Q 2706 1984 2436 2262 
Q 2166 2541 1728 2541 
Q 1456 2541 1237 2417 
Q 1019 2294 894 2097 
L 366 2166 
L 809 4519 
L 3088 4519 
L 3088 3981 
L 1259 3981 
L 1013 2750 
Q 1425 3038 1878 3038 
Q 2478 3038 2890 2622 
Q 3303 2206 3303 1553 
Q 3303 931 2941 478 
Q 2500 -78 1738 -78 
Q 1113 -78 717 272 
Q 322 622 266 1200 
z
" transform="scale(0.015625)"/>
     </defs>
     <use xlink:href="#ArialMT-36"/>
     <use xlink:href="#ArialMT-32" x="55.615234"/>
     <use xlink:href="#ArialMT-2e" x="111.230469"/>
     <use xlink:href="#ArialMT-35" x="139.013672"/>
     <use xlink:href="#ArialMT-25" x="194.628906"/>
    </g>
   </g>
   <g id="text_3">
    <!-- 34.7% -->
    <g transform="translate(270.160838 259.014154)scale(0.24 -0.24)">
     <defs>
      <path id="ArialMT-33" d="M 269 1209 
L 831 1284 
Q 928 806 1161 595 
Q 1394 384 1728 384 
Q 2125 384 2398 659 
Q 2672 934 2672 1341 
Q 2672 1728 2419 1979 
Q 2166 2231 1775 2231 
Q 1616 2231 1378 2169 
L 1441 2663 
Q 1497 2656 1531 2656 
Q 1891 2656 2178 2843 
Q 2466 3031 2466 3422 
Q 2466 3731 2256 3934 
Q 2047 4138 1716 4138 
Q 1388 4138 1169 3931 
Q 950 3725 888 3313 
L 325 3413 
Q 428 3978 793 4289 
Q 1159 4600 1703 4600 
Q 2078 4600 2393 4439 
Q 2709 4278 2876 4000 
Q 3044 3722 3044 3409 
Q 3044 3113 2884 2869 
Q 2725 2625 2413 2481 
Q 2819 2388 3044 2092 
Q 3269 1797 3269 1353 
Q 3269 753 2831 336 
Q 2394 -81 1725 -81 
Q 1122 -81 723 278 
Q 325 638 269 1209 
z
" transform="scale(0.015625)"/>
      <path id="ArialMT-34" d="M 2069 0 
L 2069 1097 
L 81 1097 
L 81 1613 
L 2172 4581 
L 2631 4581 
L 2631 1613 
L 3250 1613 
L 3250 1097 
L 2631 1097 
L 2631 0 
L 2069 0 
z
M 2069 1613 
L 2069 3678 
L 634 1613 
L 2069 1613 
z
" transform="scale(0.015625)"/>
      <path id="ArialMT-37" d="M 303 3981 
L 303 4522 
L 3269 4522 
L 3269 4084 
Q 2831 3619 2401 2847 
Q 1972 2075 1738 1259 
Q 1569 684 1522 0 
L 944 0 
Q 953 541 1156 1306 
Q 1359 2072 1739 2783 
Q 2119 3494 2547 3981 
L 303 3981 
z
" transform="scale(0.015625)"/>
     </defs>
     <use xlink:href="#ArialMT-33"/>
     <use xlink:href="#ArialMT-34" x="55.615234"/>
     <use xlink:href="#ArialMT-2e" x="111.230469"/>
     <use xlink:href="#ArialMT-37" x="139.013672"/>
     <use xlink:href="#ArialMT-25" x="194.628906"/>
    </g>
   </g>
  </g>
  <g id="axes_2">
   <g id="patch_5">
    <path d="M 703.008 85.115625 
C 703.008 79.880561 702.321755 74.668012 700.966821 69.611328 
C 699.611886 64.554645 697.599917 59.697322 694.982385 55.163624 
L 643.104 85.115625 
L 703.008 85.115625 
z
" style="fill: #a1c9f4"/>
   </g>
   <g id="patch_6">
    <path d="M 694.982385 55.163624 
C 690.388318 47.206467 684.024533 40.411923 676.384879 35.307269 
C 668.745225 30.202616 660.03257 26.923404 650.923042 25.724112 
C 641.813514 24.52482 632.549013 25.437293 623.848492 28.390722 
C 615.147971 31.34415 607.242469 36.260107 600.745477 42.757098 
C 594.248485 49.25409 589.332528 57.159591 586.379099 65.860112 
C 583.425669 74.560632 582.513195 83.825133 583.712486 92.934661 
C 584.911778 102.04419 588.190988 110.756845 593.295641 118.3965 
C 598.400294 126.036154 605.194838 132.39994 613.151994 136.994008 
L 643.104 85.115625 
L 694.982385 55.163624 
z
" style="fill: #cfcfcf"/>
   </g>
   <g id="patch_7">
    <path d="M 613.151994 136.994008 
C 622.257875 142.251291 632.589429 145.019624 643.103994 145.019625 
C 653.61856 145.019626 663.950114 142.251295 673.055996 136.994013 
C 682.161877 131.736731 689.7251 124.173509 694.982384 115.067628 
C 700.239667 105.961748 703.008 95.630194 703.008 85.115628 
L 643.104 85.115625 
L 613.151994 136.994008 
z
" style="fill: #ffb482"/>
   </g>
   <g id="matplotlib.axis_3"/>
   <g id="matplotlib.axis_4"/>
   <g id="text_4">
    <!-- YoDeL 1 -->
    <g transform="translate(605.477438 21.515625)scale(0.2 -0.2)">
     <defs>
      <path id="ArialMT-59" d="M 1784 0 
L 1784 1941 
L 19 4581 
L 756 4581 
L 1659 3200 
Q 1909 2813 2125 2425 
Q 2331 2784 2625 3234 
L 3513 4581 
L 4219 4581 
L 2391 1941 
L 2391 0 
L 1784 0 
z
" transform="scale(0.015625)"/>
      <path id="ArialMT-6f" d="M 213 1659 
Q 213 2581 725 3025 
Q 1153 3394 1769 3394 
Q 2453 3394 2887 2945 
Q 3322 2497 3322 1706 
Q 3322 1066 3130 698 
Q 2938 331 2570 128 
Q 2203 -75 1769 -75 
Q 1072 -75 642 372 
Q 213 819 213 1659 
z
M 791 1659 
Q 791 1022 1069 705 
Q 1347 388 1769 388 
Q 2188 388 2466 706 
Q 2744 1025 2744 1678 
Q 2744 2294 2464 2611 
Q 2184 2928 1769 2928 
Q 1347 2928 1069 2612 
Q 791 2297 791 1659 
z
" transform="scale(0.015625)"/>
      <path id="ArialMT-44" d="M 494 0 
L 494 4581 
L 2072 4581 
Q 2606 4581 2888 4516 
Q 3281 4425 3559 4188 
Q 3922 3881 4101 3404 
Q 4281 2928 4281 2316 
Q 4281 1794 4159 1391 
Q 4038 988 3847 723 
Q 3656 459 3429 307 
Q 3203 156 2883 78 
Q 2563 0 2147 0 
L 494 0 
z
M 1100 541 
L 2078 541 
Q 2531 541 2789 625 
Q 3047 709 3200 863 
Q 3416 1078 3536 1442 
Q 3656 1806 3656 2325 
Q 3656 3044 3420 3430 
Q 3184 3816 2847 3947 
Q 2603 4041 2063 4041 
L 1100 4041 
L 1100 541 
z
" transform="scale(0.015625)"/>
      <path id="ArialMT-65" d="M 2694 1069 
L 3275 997 
Q 3138 488 2766 206 
Q 2394 -75 1816 -75 
Q 1088 -75 661 373 
Q 234 822 234 1631 
Q 234 2469 665 2931 
Q 1097 3394 1784 3394 
Q 2450 3394 2872 2941 
Q 3294 2488 3294 1666 
Q 3294 1616 3291 1516 
L 816 1516 
Q 847 969 1125 678 
Q 1403 388 1819 388 
Q 2128 388 2347 550 
Q 2566 713 2694 1069 
z
M 847 1978 
L 2700 1978 
Q 2663 2397 2488 2606 
Q 2219 2931 1791 2931 
Q 1403 2931 1139 2672 
Q 875 2413 847 1978 
z
" transform="scale(0.015625)"/>
      <path id="ArialMT-4c" d="M 469 0 
L 469 4581 
L 1075 4581 
L 1075 541 
L 3331 541 
L 3331 0 
L 469 0 
z
" transform="scale(0.015625)"/>
      <path id="ArialMT-20" transform="scale(0.015625)"/>
      <path id="ArialMT-31" d="M 2384 0 
L 1822 0 
L 1822 3584 
Q 1619 3391 1289 3197 
Q 959 3003 697 2906 
L 697 3450 
Q 1169 3672 1522 3987 
Q 1875 4303 2022 4600 
L 2384 4600 
L 2384 0 
z
" transform="scale(0.015625)"/>
     </defs>
     <use xlink:href="#ArialMT-59"/>
     <use xlink:href="#ArialMT-6f" x="57.574219"/>
     <use xlink:href="#ArialMT-44" x="113.189453"/>
     <use xlink:href="#ArialMT-65" x="185.40625"/>
     <use xlink:href="#ArialMT-4c" x="241.021484"/>
     <use xlink:href="#ArialMT-20" x="292.886719"/>
     <use xlink:href="#ArialMT-31" x="320.669922"/>
    </g>
   </g>
  </g>
  <g id="axes_3">
   <g id="patch_8">
    <path d="M 895.008 85.115625 
C 895.008 73.269151 891.493904 61.684729 884.912356 51.834746 
C 878.330807 41.984763 868.972983 34.304995 858.028268 29.771545 
C 847.083554 25.238096 835.036157 24.051531 823.417309 26.362664 
C 811.798462 28.673796 801.122197 34.380378 792.745475 42.7571 
C 784.368753 51.133822 778.662171 61.810087 776.351039 73.428934 
C 774.039906 85.047782 775.226471 97.095179 779.75992 108.039893 
C 784.29337 118.984608 791.973138 128.342432 801.823121 134.923981 
C 811.673104 141.505529 823.257526 145.019625 835.104 145.019625 
L 835.104 85.115625 
L 895.008 85.115625 
z
" style="fill: #cfcfcf"/>
   </g>
   <g id="patch_9">
    <path d="M 835.104 145.019625 
C 850.985435 145.019625 866.232654 138.70402 877.462525 127.47415 
C 888.692395 116.244279 895.008 100.99706 895.008 85.115625 
L 835.104 85.115625 
L 835.104 145.019625 
z
" style="fill: #ffb482"/>
   </g>
   <g id="matplotlib.axis_5"/>
   <g id="matplotlib.axis_6"/>
   <g id="text_5">
    <!-- YoDeL 2 -->
    <g transform="translate(797.477438 21.515625)scale(0.2 -0.2)">
     <use xlink:href="#ArialMT-59"/>
     <use xlink:href="#ArialMT-6f" x="57.574219"/>
     <use xlink:href="#ArialMT-44" x="113.189453"/>
     <use xlink:href="#ArialMT-65" x="185.40625"/>
     <use xlink:href="#ArialMT-4c" x="241.021484"/>
     <use xlink:href="#ArialMT-20" x="292.886719"/>
     <use xlink:href="#ArialMT-32" x="320.669922"/>
    </g>
   </g>
  </g>
  <g id="axes_4">
   <g id="patch_10">
    <path d="M 1087.008 85.115625 
C 1087.008 73.269151 1083.493904 61.684729 1076.912356 51.834746 
C 1070.330807 41.984763 1060.972983 34.304995 1050.028268 29.771545 
C 1039.083554 25.238096 1027.036157 24.051531 1015.417309 26.362664 
C 1003.798462 28.673796 993.122197 34.380378 984.745475 42.7571 
C 976.368753 51.133822 970.662171 61.810087 968.351039 73.428934 
C 966.039906 85.047782 967.226471 97.095179 971.75992 108.039893 
C 976.29337 118.984608 983.973138 128.342432 993.823121 134.923981 
C 1003.673104 141.505529 1015.257526 145.019625 1027.104 145.019625 
L 1027.104 85.115625 
L 1087.008 85.115625 
z
" style="fill: #cfcfcf"/>
   </g>
   <g id="patch_11">
    <path d="M 1027.104 145.019625 
C 1042.985435 145.019625 1058.232654 138.70402 1069.462525 127.47415 
C 1080.692395 116.244279 1087.008 100.99706 1087.008 85.115625 
L 1027.104 85.115625 
L 1027.104 145.019625 
z
" style="fill: #ffb482"/>
   </g>
   <g id="matplotlib.axis_7"/>
   <g id="matplotlib.axis_8"/>
   <g id="text_6">
    <!-- YoDeL 3 -->
    <g transform="translate(989.477437 21.515625)scale(0.2 -0.2)">
     <use xlink:href="#ArialMT-59"/>
     <use xlink:href="#ArialMT-6f" x="57.574219"/>
     <use xlink:href="#ArialMT-44" x="113.189453"/>
     <use xlink:href="#ArialMT-65" x="185.40625"/>
     <use xlink:href="#ArialMT-4c" x="241.021484"/>
     <use xlink:href="#ArialMT-20" x="292.886719"/>
     <use xlink:href="#ArialMT-33" x="320.669922"/>
    </g>
   </g>
  </g>
  <g id="axes_5">
   <g id="patch_12">
    <path d="M 703.008 257.915625 
C 703.008 252.680561 702.321755 247.468012 700.966821 242.411328 
C 699.611886 237.354645 697.599917 232.497322 694.982385 227.963624 
L 643.104 257.915625 
L 703.008 257.915625 
z
" style="fill: #a1c9f4"/>
   </g>
   <g id="patch_13">
    <path d="M 694.982385 227.963624 
C 687.041667 214.209898 673.948584 204.163222 658.608295 200.052804 
C 643.268007 195.942386 626.905726 198.096522 613.151999 206.03724 
C 599.398273 213.977958 589.351597 227.071041 585.241179 242.41133 
C 581.130761 257.751618 583.284897 274.113899 591.225615 287.867626 
L 643.104 257.915625 
L 694.982385 227.963624 
z
" style="fill: #cfcfcf"/>
   </g>
   <g id="patch_14">
    <path d="M 591.225615 287.867626 
C 597.817867 299.285741 607.998838 308.214213 620.179732 313.259705 
C 632.360625 318.305196 645.873042 319.190847 658.608295 315.778446 
C 671.343549 312.366045 682.602819 304.842842 690.629037 294.382871 
C 698.655255 283.922901 703.007999 271.100132 703.008 257.915628 
L 643.104 257.915625 
L 591.225615 287.867626 
z
" style="fill: #ffb482"/>
   </g>
   <g id="matplotlib.axis_9"/>
   <g id="matplotlib.axis_10"/>
   <g id="text_7">
    <!-- YoDeL 4 -->
    <g transform="translate(605.477438 194.315625)scale(0.2 -0.2)">
     <use xlink:href="#ArialMT-59"/>
     <use xlink:href="#ArialMT-6f" x="57.574219"/>
     <use xlink:href="#ArialMT-44" x="113.189453"/>
     <use xlink:href="#ArialMT-65" x="185.40625"/>
     <use xlink:href="#ArialMT-4c" x="241.021484"/>
     <use xlink:href="#ArialMT-20" x="292.886719"/>
     <use xlink:href="#ArialMT-34" x="320.669922"/>
    </g>
   </g>
  </g>
  <g id="axes_6">
   <g id="patch_15">
    <path d="M 895.008 257.915625 
C 895.008 248.727491 892.894073 239.661351 888.830265 231.420764 
C 884.766458 223.180177 878.860683 215.983969 871.571246 210.390588 
C 864.28181 204.797206 855.80228 200.955181 846.790693 199.162664 
C 837.779107 197.370148 828.474763 197.67474 819.599708 200.052803 
C 810.724652 202.430867 802.514557 206.819253 795.606552 212.87741 
C 788.698547 218.935567 783.27607 226.502623 779.759923 234.991351 
C 776.243775 243.48008 774.727327 252.665066 775.328259 261.833528 
C 775.92919 271.001989 778.631545 279.910461 783.22561 287.867619 
L 835.104 257.915625 
L 895.008 257.915625 
z
" style="fill: #cfcfcf"/>
   </g>
   <g id="patch_16">
    <path d="M 783.22561 287.867619 
C 789.817861 299.285735 799.998831 308.214208 812.179724 313.259701 
C 824.360617 318.305194 837.873033 319.190847 850.608287 315.778448 
C 863.343541 312.366049 874.602813 304.842847 882.629032 294.382878 
C 890.655252 283.922909 895.007998 271.100141 895.008 257.915636 
L 835.104 257.915625 
L 783.22561 287.867619 
z
" style="fill: #ffb482"/>
   </g>
   <g id="matplotlib.axis_11"/>
   <g id="matplotlib.axis_12"/>
   <g id="text_8">
    <!-- YoDeL 5 -->
    <g transform="translate(797.477438 194.315625)scale(0.2 -0.2)">
     <use xlink:href="#ArialMT-59"/>
     <use xlink:href="#ArialMT-6f" x="57.574219"/>
     <use xlink:href="#ArialMT-44" x="113.189453"/>
     <use xlink:href="#ArialMT-65" x="185.40625"/>
     <use xlink:href="#ArialMT-4c" x="241.021484"/>
     <use xlink:href="#ArialMT-20" x="292.886719"/>
     <use xlink:href="#ArialMT-35" x="320.669922"/>
    </g>
   </g>
  </g>
  <g id="axes_7">
   <g id="patch_17">
    <path d="M 1087.008 257.915625 
C 1087.008 248.727491 1084.894073 239.661351 1080.830265 231.420764 
C 1076.766458 223.180177 1070.860683 215.983969 1063.571246 210.390588 
C 1056.28181 204.797206 1047.80228 200.955181 1038.790693 199.162664 
C 1029.779107 197.370148 1020.474763 197.67474 1011.599708 200.052803 
C 1002.724652 202.430867 994.514557 206.819253 987.606552 212.87741 
C 980.698547 218.935567 975.27607 226.502623 971.759923 234.991351 
C 968.243775 243.48008 966.727327 252.665066 967.328259 261.833528 
C 967.92919 271.001989 970.631545 279.910461 975.22561 287.867619 
L 1027.104 257.915625 
L 1087.008 257.915625 
z
" style="fill: #cfcfcf"/>
   </g>
   <g id="patch_18">
    <path d="M 975.22561 287.867619 
C 981.817861 299.285735 991.998831 308.214208 1004.179724 313.259701 
C 1016.360617 318.305194 1029.873033 319.190847 1042.608287 315.778448 
C 1055.343541 312.366049 1066.602813 304.842847 1074.629032 294.382878 
C 1082.655252 283.922909 1087.007998 271.100141 1087.008 257.915636 
L 1027.104 257.915625 
L 975.22561 287.867619 
z
" style="fill: #ffb482"/>
   </g>
   <g id="matplotlib.axis_13"/>
   <g id="matplotlib.axis_14"/>
   <g id="text_9">
    <!-- YoDeL 6 -->
    <g transform="translate(989.477437 194.315625)scale(0.2 -0.2)">
     <use xlink:href="#ArialMT-59"/>
     <use xlink:href="#ArialMT-6f" x="57.574219"/>
     <use xlink:href="#ArialMT-44" x="113.189453"/>
     <use xlink:href="#ArialMT-65" x="185.40625"/>
     <use xlink:href="#ArialMT-4c" x="241.021484"/>
     <use xlink:href="#ArialMT-20" x="292.886719"/>
     <use xlink:href="#ArialMT-36" x="320.669922"/>
    </g>
   </g>
  </g>
  <g id="axes_8">
   <g id="patch_19">
    <path d="M 127.008 488.315625 
C 127.008 488.315625 127.008 488.315625 127.008 488.315625 
L 67.104 488.315625 
L 127.008 488.315625 
z
" style="fill: #a1c9f4"/>
   </g>
   <g id="patch_20">
    <path d="M 127.008 488.315625 
C 127.008 472.43419 120.692395 457.186971 109.462525 445.9571 
C 98.232654 434.72723 82.985435 428.411625 67.104 428.411625 
C 51.222565 428.411625 35.975346 434.72723 24.745475 445.9571 
C 13.515605 457.186971 7.2 472.43419 7.2 488.315625 
L 67.104 488.315625 
L 127.008 488.315625 
z
" style="fill: #cfcfcf"/>
   </g>
   <g id="patch_21">
    <path d="M 7.2 488.315625 
C 7.2 504.19706 13.515605 519.444279 24.745475 530.67415 
C 35.975346 541.90402 51.222565 548.219625 67.104 548.219625 
C 82.985435 548.219625 98.232654 541.90402 109.462525 530.67415 
C 120.692395 519.444279 127.008 504.19706 127.008 488.315625 
L 67.104 488.315625 
L 7.2 488.315625 
z
" style="fill: #ffb482"/>
   </g>
   <g id="matplotlib.axis_15"/>
   <g id="matplotlib.axis_16"/>
   <g id="text_10">
    <!-- Carcinogens -->
    <g transform="translate(10.964938 424.715625)scale(0.2 -0.2)">
     <defs>
      <path id="ArialMT-43" d="M 3763 1606 
L 4369 1453 
Q 4178 706 3683 314 
Q 3188 -78 2472 -78 
Q 1731 -78 1267 223 
Q 803 525 561 1097 
Q 319 1669 319 2325 
Q 319 3041 592 3573 
Q 866 4106 1370 4382 
Q 1875 4659 2481 4659 
Q 3169 4659 3637 4309 
Q 4106 3959 4291 3325 
L 3694 3184 
Q 3534 3684 3231 3912 
Q 2928 4141 2469 4141 
Q 1941 4141 1586 3887 
Q 1231 3634 1087 3207 
Q 944 2781 944 2328 
Q 944 1744 1114 1308 
Q 1284 872 1643 656 
Q 2003 441 2422 441 
Q 2931 441 3284 734 
Q 3638 1028 3763 1606 
z
" transform="scale(0.015625)"/>
      <path id="ArialMT-61" d="M 2588 409 
Q 2275 144 1986 34 
Q 1697 -75 1366 -75 
Q 819 -75 525 192 
Q 231 459 231 875 
Q 231 1119 342 1320 
Q 453 1522 633 1644 
Q 813 1766 1038 1828 
Q 1203 1872 1538 1913 
Q 2219 1994 2541 2106 
Q 2544 2222 2544 2253 
Q 2544 2597 2384 2738 
Q 2169 2928 1744 2928 
Q 1347 2928 1158 2789 
Q 969 2650 878 2297 
L 328 2372 
Q 403 2725 575 2942 
Q 747 3159 1072 3276 
Q 1397 3394 1825 3394 
Q 2250 3394 2515 3294 
Q 2781 3194 2906 3042 
Q 3031 2891 3081 2659 
Q 3109 2516 3109 2141 
L 3109 1391 
Q 3109 606 3145 398 
Q 3181 191 3288 0 
L 2700 0 
Q 2613 175 2588 409 
z
M 2541 1666 
Q 2234 1541 1622 1453 
Q 1275 1403 1131 1340 
Q 988 1278 909 1158 
Q 831 1038 831 891 
Q 831 666 1001 516 
Q 1172 366 1500 366 
Q 1825 366 2078 508 
Q 2331 650 2450 897 
Q 2541 1088 2541 1459 
L 2541 1666 
z
" transform="scale(0.015625)"/>
      <path id="ArialMT-72" d="M 416 0 
L 416 3319 
L 922 3319 
L 922 2816 
Q 1116 3169 1280 3281 
Q 1444 3394 1641 3394 
Q 1925 3394 2219 3213 
L 2025 2691 
Q 1819 2813 1613 2813 
Q 1428 2813 1281 2702 
Q 1134 2591 1072 2394 
Q 978 2094 978 1738 
L 978 0 
L 416 0 
z
" transform="scale(0.015625)"/>
      <path id="ArialMT-63" d="M 2588 1216 
L 3141 1144 
Q 3050 572 2676 248 
Q 2303 -75 1759 -75 
Q 1078 -75 664 370 
Q 250 816 250 1647 
Q 250 2184 428 2587 
Q 606 2991 970 3192 
Q 1334 3394 1763 3394 
Q 2303 3394 2647 3120 
Q 2991 2847 3088 2344 
L 2541 2259 
Q 2463 2594 2264 2762 
Q 2066 2931 1784 2931 
Q 1359 2931 1093 2626 
Q 828 2322 828 1663 
Q 828 994 1084 691 
Q 1341 388 1753 388 
Q 2084 388 2306 591 
Q 2528 794 2588 1216 
z
" transform="scale(0.015625)"/>
      <path id="ArialMT-69" d="M 425 3934 
L 425 4581 
L 988 4581 
L 988 3934 
L 425 3934 
z
M 425 0 
L 425 3319 
L 988 3319 
L 988 0 
L 425 0 
z
" transform="scale(0.015625)"/>
      <path id="ArialMT-6e" d="M 422 0 
L 422 3319 
L 928 3319 
L 928 2847 
Q 1294 3394 1984 3394 
Q 2284 3394 2536 3286 
Q 2788 3178 2913 3003 
Q 3038 2828 3088 2588 
Q 3119 2431 3119 2041 
L 3119 0 
L 2556 0 
L 2556 2019 
Q 2556 2363 2490 2533 
Q 2425 2703 2258 2804 
Q 2091 2906 1866 2906 
Q 1506 2906 1245 2678 
Q 984 2450 984 1813 
L 984 0 
L 422 0 
z
" transform="scale(0.015625)"/>
      <path id="ArialMT-67" d="M 319 -275 
L 866 -356 
Q 900 -609 1056 -725 
Q 1266 -881 1628 -881 
Q 2019 -881 2231 -725 
Q 2444 -569 2519 -288 
Q 2563 -116 2559 434 
Q 2191 0 1641 0 
Q 956 0 581 494 
Q 206 988 206 1678 
Q 206 2153 378 2554 
Q 550 2956 876 3175 
Q 1203 3394 1644 3394 
Q 2231 3394 2613 2919 
L 2613 3319 
L 3131 3319 
L 3131 450 
Q 3131 -325 2973 -648 
Q 2816 -972 2473 -1159 
Q 2131 -1347 1631 -1347 
Q 1038 -1347 672 -1080 
Q 306 -813 319 -275 
z
M 784 1719 
Q 784 1066 1043 766 
Q 1303 466 1694 466 
Q 2081 466 2343 764 
Q 2606 1063 2606 1700 
Q 2606 2309 2336 2618 
Q 2066 2928 1684 2928 
Q 1309 2928 1046 2623 
Q 784 2319 784 1719 
z
" transform="scale(0.015625)"/>
      <path id="ArialMT-73" d="M 197 991 
L 753 1078 
Q 800 744 1014 566 
Q 1228 388 1613 388 
Q 2000 388 2187 545 
Q 2375 703 2375 916 
Q 2375 1106 2209 1216 
Q 2094 1291 1634 1406 
Q 1016 1563 777 1677 
Q 538 1791 414 1992 
Q 291 2194 291 2438 
Q 291 2659 392 2848 
Q 494 3038 669 3163 
Q 800 3259 1026 3326 
Q 1253 3394 1513 3394 
Q 1903 3394 2198 3281 
Q 2494 3169 2634 2976 
Q 2775 2784 2828 2463 
L 2278 2388 
Q 2241 2644 2061 2787 
Q 1881 2931 1553 2931 
Q 1166 2931 1000 2803 
Q 834 2675 834 2503 
Q 834 2394 903 2306 
Q 972 2216 1119 2156 
Q 1203 2125 1616 2013 
Q 2213 1853 2448 1751 
Q 2684 1650 2818 1456 
Q 2953 1263 2953 975 
Q 2953 694 2789 445 
Q 2625 197 2315 61 
Q 2006 -75 1616 -75 
Q 969 -75 630 194 
Q 291 463 197 991 
z
" transform="scale(0.015625)"/>
     </defs>
     <use xlink:href="#ArialMT-43"/>
     <use xlink:href="#ArialMT-61" x="72.216797"/>
     <use xlink:href="#ArialMT-72" x="127.832031"/>
     <use xlink:href="#ArialMT-63" x="161.132812"/>
     <use xlink:href="#ArialMT-69" x="211.132812"/>
     <use xlink:href="#ArialMT-6e" x="233.349609"/>
     <use xlink:href="#ArialMT-6f" x="288.964844"/>
     <use xlink:href="#ArialMT-67" x="344.580078"/>
     <use xlink:href="#ArialMT-65" x="400.195312"/>
     <use xlink:href="#ArialMT-6e" x="455.810547"/>
     <use xlink:href="#ArialMT-73" x="511.425781"/>
    </g>
   </g>
  </g>
  <g id="axes_9">
   <g id="patch_22">
    <path d="M 319.008 488.315625 
C 319.008 488.315625 319.008 488.315625 319.008 488.315625 
L 259.104 488.315625 
L 319.008 488.315625 
z
" style="fill: #a1c9f4"/>
   </g>
   <g id="patch_23">
    <path d="M 319.008 488.315625 
C 319.008 488.315625 319.008 488.315625 319.008 488.315625 
L 259.104 488.315625 
L 319.008 488.315625 
z
" style="fill: #cfcfcf"/>
   </g>
   <g id="patch_24">
    <path d="M 319.008 488.315625 
C 319.008 480.449104 317.458467 472.659075 314.44808 465.391357 
C 311.437692 458.123639 307.024995 451.519571 301.462525 445.9571 
C 295.900054 440.39463 289.295986 435.981933 282.028268 432.971545 
C 274.76055 429.961158 266.970521 428.411625 259.104 428.411625 
C 251.237479 428.411625 243.44745 429.961158 236.179732 432.971545 
C 228.912014 435.981933 222.307946 440.39463 216.745475 445.9571 
C 211.183005 451.519571 206.770308 458.123639 203.75992 465.391357 
C 200.749533 472.659075 199.2 480.449104 199.2 488.315625 
C 199.2 496.182146 200.749533 503.972175 203.75992 511.239893 
C 206.770308 518.507611 211.183005 525.111679 216.745475 530.67415 
C 222.307946 536.23662 228.912014 540.649317 236.179732 543.659705 
C 243.44745 546.670092 251.237479 548.219625 259.104 548.219625 
C 266.970521 548.219625 274.76055 546.670092 282.028268 543.659705 
C 289.295986 540.649317 295.900054 536.23662 301.462525 530.67415 
C 307.024995 525.111679 311.437692 518.507611 314.44808 511.239893 
C 317.458467 503.972175 319.008 496.182146 319.008 488.315625 
M 259.104 488.315625 
M 319.008 488.315625 
z
" style="fill: #ffb482"/>
   </g>
   <g id="matplotlib.axis_17"/>
   <g id="matplotlib.axis_18"/>
   <g id="text_11">
    <!-- Skin -->
    <g transform="translate(239.650875 424.715625)scale(0.2 -0.2)">
     <defs>
      <path id="ArialMT-53" d="M 288 1472 
L 859 1522 
Q 900 1178 1048 958 
Q 1197 738 1509 602 
Q 1822 466 2213 466 
Q 2559 466 2825 569 
Q 3091 672 3220 851 
Q 3350 1031 3350 1244 
Q 3350 1459 3225 1620 
Q 3100 1781 2813 1891 
Q 2628 1963 1997 2114 
Q 1366 2266 1113 2400 
Q 784 2572 623 2826 
Q 463 3081 463 3397 
Q 463 3744 659 4045 
Q 856 4347 1234 4503 
Q 1613 4659 2075 4659 
Q 2584 4659 2973 4495 
Q 3363 4331 3572 4012 
Q 3781 3694 3797 3291 
L 3216 3247 
Q 3169 3681 2898 3903 
Q 2628 4125 2100 4125 
Q 1550 4125 1298 3923 
Q 1047 3722 1047 3438 
Q 1047 3191 1225 3031 
Q 1400 2872 2139 2705 
Q 2878 2538 3153 2413 
Q 3553 2228 3743 1945 
Q 3934 1663 3934 1294 
Q 3934 928 3725 604 
Q 3516 281 3123 101 
Q 2731 -78 2241 -78 
Q 1619 -78 1198 103 
Q 778 284 539 648 
Q 300 1013 288 1472 
z
" transform="scale(0.015625)"/>
      <path id="ArialMT-6b" d="M 425 0 
L 425 4581 
L 988 4581 
L 988 1969 
L 2319 3319 
L 3047 3319 
L 1778 2088 
L 3175 0 
L 2481 0 
L 1384 1697 
L 988 1316 
L 988 0 
L 425 0 
z
" transform="scale(0.015625)"/>
     </defs>
     <use xlink:href="#ArialMT-53"/>
     <use xlink:href="#ArialMT-6b" x="66.699219"/>
     <use xlink:href="#ArialMT-69" x="116.699219"/>
     <use xlink:href="#ArialMT-6e" x="138.916016"/>
    </g>
   </g>
  </g>
  <g id="axes_10">
   <g id="patch_25">
    <path d="M 511.008 488.315625 
C 511.008 477.801059 508.239668 467.469505 502.982385 458.363624 
C 497.725102 449.257743 490.16188 441.694521 481.055998 436.437238 
L 451.104 488.315625 
L 511.008 488.315625 
z
" style="fill: #a1c9f4"/>
   </g>
   <g id="patch_26">
    <path d="M 481.055998 436.437238 
C 475.384349 433.16271 469.213908 430.840321 462.790689 429.562663 
C 456.367471 428.285006 449.777987 428.069289 443.284958 428.924112 
C 436.791929 429.778936 430.482809 431.692787 424.609138 434.58936 
C 418.735467 437.485934 413.376358 441.326218 408.745475 445.9571 
C 404.114593 450.587983 400.274309 455.947092 397.377735 461.820763 
C 394.481162 467.694434 392.567311 474.003554 391.712487 480.496583 
C 390.857664 486.989612 391.073381 493.579096 392.351038 500.002314 
C 393.628696 506.425533 395.951085 512.595974 399.225613 518.267623 
C 402.500142 523.939273 406.682705 529.035742 411.606547 533.353835 
C 416.530388 537.671929 422.129189 541.153488 428.179729 543.659703 
C 434.230269 546.165919 440.651053 547.663037 447.186088 548.091366 
C 453.721123 548.519695 460.282389 547.873467 466.608292 546.178447 
C 472.934196 544.483426 478.939534 541.762444 484.384876 538.123983 
C 489.830218 534.485522 494.642222 529.978589 498.629036 524.782873 
C 502.615849 519.587157 505.723775 513.772639 507.828901 507.57114 
C 509.934027 501.36964 511.007999 494.864688 511.008 488.315631 
L 451.104 488.315625 
L 481.055998 436.437238 
z
" style="fill: #cfcfcf"/>
   </g>
   <g id="patch_27">
    <path d="M 511.008 488.315631 
C 511.008 488.315631 511.008 488.315631 511.008 488.315631 
L 451.104 488.315625 
L 511.008 488.315631 
z
" style="fill: #ffb482"/>
   </g>
   <g id="matplotlib.axis_19"/>
   <g id="matplotlib.axis_20"/>
   <g id="text_12">
    <!-- DILI -->
    <g transform="translate(432.764937 424.715625)scale(0.2 -0.2)">
     <defs>
      <path id="ArialMT-49" d="M 597 0 
L 597 4581 
L 1203 4581 
L 1203 0 
L 597 0 
z
" transform="scale(0.015625)"/>
     </defs>
     <use xlink:href="#ArialMT-44"/>
     <use xlink:href="#ArialMT-49" x="72.216797"/>
     <use xlink:href="#ArialMT-4c" x="100"/>
     <use xlink:href="#ArialMT-49" x="155.615234"/>
    </g>
   </g>
  </g>
  <g id="axes_11">
   <g id="patch_28">
    <path d="M 703.008 488.315625 
C 703.008 488.315625 703.008 488.315625 703.008 488.315625 
L 643.104 488.315625 
L 703.008 488.315625 
z
" style="fill: #a1c9f4"/>
   </g>
   <g id="patch_29">
    <path d="M 703.008 488.315625 
C 703.008 472.43419 696.692395 457.186971 685.462525 445.9571 
C 674.232654 434.72723 658.985435 428.411625 643.104 428.411625 
C 627.222565 428.411625 611.975346 434.72723 600.745475 445.9571 
C 589.515605 457.186971 583.2 472.43419 583.2 488.315625 
L 643.104 488.315625 
L 703.008 488.315625 
z
" style="fill: #cfcfcf"/>
   </g>
   <g id="patch_30">
    <path d="M 583.2 488.315625 
C 583.2 504.19706 589.515605 519.444279 600.745475 530.67415 
C 611.975346 541.90402 627.222565 548.219625 643.104 548.219625 
C 658.985435 548.219625 674.232654 541.90402 685.462525 530.67415 
C 696.692395 519.444279 703.008 504.19706 703.008 488.315625 
L 643.104 488.315625 
L 583.2 488.315625 
z
" style="fill: #ffb482"/>
   </g>
   <g id="matplotlib.axis_21"/>
   <g id="matplotlib.axis_22"/>
   <g id="text_13">
    <!-- HIA -->
    <g transform="translate(626.433688 424.715625)scale(0.2 -0.2)">
     <defs>
      <path id="ArialMT-48" d="M 513 0 
L 513 4581 
L 1119 4581 
L 1119 2700 
L 3500 2700 
L 3500 4581 
L 4106 4581 
L 4106 0 
L 3500 0 
L 3500 2159 
L 1119 2159 
L 1119 0 
L 513 0 
z
" transform="scale(0.015625)"/>
      <path id="ArialMT-41" d="M -9 0 
L 1750 4581 
L 2403 4581 
L 4278 0 
L 3588 0 
L 3053 1388 
L 1138 1388 
L 634 0 
L -9 0 
z
M 1313 1881 
L 2866 1881 
L 2388 3150 
Q 2169 3728 2063 4100 
Q 1975 3659 1816 3225 
L 1313 1881 
z
" transform="scale(0.015625)"/>
     </defs>
     <use xlink:href="#ArialMT-48"/>
     <use xlink:href="#ArialMT-49" x="72.216797"/>
     <use xlink:href="#ArialMT-41" x="100"/>
    </g>
   </g>
  </g>
  <g id="axes_12">
   <g id="patch_31">
    <path d="M 895.008 488.315625 
C 895.008 488.315625 895.008 488.315625 895.008 488.315625 
L 835.104 488.315625 
L 895.008 488.315625 
z
" style="fill: #a1c9f4"/>
   </g>
   <g id="patch_32">
    <path d="M 895.008 488.315625 
C 895.008 481.766568 893.934028 475.261615 891.828903 469.060116 
C 889.723777 462.858616 886.615852 457.044097 882.629039 451.848381 
C 878.642226 446.652665 873.830222 442.145731 868.38488 438.50727 
C 862.939539 434.868809 856.934201 432.147826 850.608298 430.452805 
C 844.282395 428.757784 837.721128 428.111555 831.186093 428.539884 
C 824.651058 428.968212 818.230274 430.465329 812.179734 432.971544 
C 806.129194 435.47776 800.530393 438.959318 795.606551 443.277411 
C 790.682709 447.595504 786.500145 452.691972 783.225616 458.363622 
C 779.951087 464.035271 777.628697 470.205712 776.351039 476.62893 
C 775.073381 483.052149 774.857663 489.641632 775.712486 496.134661 
C 776.567309 502.62769 778.48116 508.936811 781.377733 514.810482 
C 784.274306 520.684153 788.114589 526.043263 792.745471 530.674146 
C 797.376354 535.305029 802.735462 539.145313 808.609133 542.041887 
C 814.482803 544.938461 820.791924 546.852313 827.284952 547.707137 
C 833.777981 548.561961 840.367465 548.346245 846.790684 547.068588 
C 853.213903 545.790931 859.384343 543.468542 865.055994 540.194015 
L 835.104 488.315625 
L 895.008 488.315625 
z
" style="fill: #cfcfcf"/>
   </g>
   <g id="patch_33">
    <path d="M 865.055994 540.194015 
C 874.161875 534.936733 881.725099 527.373511 886.982383 518.267631 
C 892.239666 509.16175 895.007999 498.830196 895.008 488.315631 
L 835.104 488.315625 
L 865.055994 540.194015 
z
" style="fill: #ffb482"/>
   </g>
   <g id="matplotlib.axis_23"/>
   <g id="matplotlib.axis_24"/>
   <g id="text_14">
    <!-- Bioavailability -->
    <g transform="translate(774.519625 424.715625)scale(0.2 -0.2)">
     <defs>
      <path id="ArialMT-42" d="M 469 0 
L 469 4581 
L 2188 4581 
Q 2713 4581 3030 4442 
Q 3347 4303 3526 4014 
Q 3706 3725 3706 3409 
Q 3706 3116 3547 2856 
Q 3388 2597 3066 2438 
Q 3481 2316 3704 2022 
Q 3928 1728 3928 1328 
Q 3928 1006 3792 729 
Q 3656 453 3456 303 
Q 3256 153 2954 76 
Q 2653 0 2216 0 
L 469 0 
z
M 1075 2656 
L 2066 2656 
Q 2469 2656 2644 2709 
Q 2875 2778 2992 2937 
Q 3109 3097 3109 3338 
Q 3109 3566 3000 3739 
Q 2891 3913 2687 3977 
Q 2484 4041 1991 4041 
L 1075 4041 
L 1075 2656 
z
M 1075 541 
L 2216 541 
Q 2509 541 2628 563 
Q 2838 600 2978 687 
Q 3119 775 3209 942 
Q 3300 1109 3300 1328 
Q 3300 1584 3169 1773 
Q 3038 1963 2805 2039 
Q 2572 2116 2134 2116 
L 1075 2116 
L 1075 541 
z
" transform="scale(0.015625)"/>
      <path id="ArialMT-76" d="M 1344 0 
L 81 3319 
L 675 3319 
L 1388 1331 
Q 1503 1009 1600 663 
Q 1675 925 1809 1294 
L 2547 3319 
L 3125 3319 
L 1869 0 
L 1344 0 
z
" transform="scale(0.015625)"/>
      <path id="ArialMT-6c" d="M 409 0 
L 409 4581 
L 972 4581 
L 972 0 
L 409 0 
z
" transform="scale(0.015625)"/>
      <path id="ArialMT-62" d="M 941 0 
L 419 0 
L 419 4581 
L 981 4581 
L 981 2947 
Q 1338 3394 1891 3394 
Q 2197 3394 2470 3270 
Q 2744 3147 2920 2923 
Q 3097 2700 3197 2384 
Q 3297 2069 3297 1709 
Q 3297 856 2875 390 
Q 2453 -75 1863 -75 
Q 1275 -75 941 416 
L 941 0 
z
M 934 1684 
Q 934 1088 1097 822 
Q 1363 388 1816 388 
Q 2184 388 2453 708 
Q 2722 1028 2722 1663 
Q 2722 2313 2464 2622 
Q 2206 2931 1841 2931 
Q 1472 2931 1203 2611 
Q 934 2291 934 1684 
z
" transform="scale(0.015625)"/>
      <path id="ArialMT-74" d="M 1650 503 
L 1731 6 
Q 1494 -44 1306 -44 
Q 1000 -44 831 53 
Q 663 150 594 308 
Q 525 466 525 972 
L 525 2881 
L 113 2881 
L 113 3319 
L 525 3319 
L 525 4141 
L 1084 4478 
L 1084 3319 
L 1650 3319 
L 1650 2881 
L 1084 2881 
L 1084 941 
Q 1084 700 1114 631 
Q 1144 563 1211 522 
Q 1278 481 1403 481 
Q 1497 481 1650 503 
z
" transform="scale(0.015625)"/>
      <path id="ArialMT-79" d="M 397 -1278 
L 334 -750 
Q 519 -800 656 -800 
Q 844 -800 956 -737 
Q 1069 -675 1141 -563 
Q 1194 -478 1313 -144 
Q 1328 -97 1363 -6 
L 103 3319 
L 709 3319 
L 1400 1397 
Q 1534 1031 1641 628 
Q 1738 1016 1872 1384 
L 2581 3319 
L 3144 3319 
L 1881 -56 
Q 1678 -603 1566 -809 
Q 1416 -1088 1222 -1217 
Q 1028 -1347 759 -1347 
Q 597 -1347 397 -1278 
z
" transform="scale(0.015625)"/>
     </defs>
     <use xlink:href="#ArialMT-42"/>
     <use xlink:href="#ArialMT-69" x="66.699219"/>
     <use xlink:href="#ArialMT-6f" x="88.916016"/>
     <use xlink:href="#ArialMT-61" x="144.53125"/>
     <use xlink:href="#ArialMT-76" x="200.146484"/>
     <use xlink:href="#ArialMT-61" x="250.146484"/>
     <use xlink:href="#ArialMT-69" x="305.761719"/>
     <use xlink:href="#ArialMT-6c" x="327.978516"/>
     <use xlink:href="#ArialMT-61" x="350.195312"/>
     <use xlink:href="#ArialMT-62" x="405.810547"/>
     <use xlink:href="#ArialMT-69" x="461.425781"/>
     <use xlink:href="#ArialMT-6c" x="483.642578"/>
     <use xlink:href="#ArialMT-69" x="505.859375"/>
     <use xlink:href="#ArialMT-74" x="528.076172"/>
     <use xlink:href="#ArialMT-79" x="555.859375"/>
    </g>
   </g>
  </g>
  <g id="axes_13">
   <g id="patch_34">
    <path d="M 1087.008 488.315625 
C 1087.008 488.315625 1087.008 488.315625 1087.008 488.315625 
L 1027.104 488.315625 
L 1087.008 488.315625 
z
" style="fill: #a1c9f4"/>
   </g>
   <g id="patch_35">
    <path d="M 1087.008 488.315625 
C 1087.008 481.766568 1085.934028 475.261615 1083.828903 469.060116 
C 1081.723777 462.858616 1078.615852 457.044097 1074.629039 451.848381 
C 1070.642226 446.652665 1065.830222 442.145731 1060.38488 438.50727 
C 1054.939539 434.868809 1048.934201 432.147826 1042.608298 430.452805 
C 1036.282395 428.757784 1029.721128 428.111555 1023.186093 428.539884 
C 1016.651058 428.968212 1010.230274 430.465329 1004.179734 432.971544 
C 998.129194 435.47776 992.530393 438.959318 987.606551 443.277411 
C 982.682709 447.595504 978.500145 452.691972 975.225616 458.363622 
C 971.951087 464.035271 969.628697 470.205712 968.351039 476.62893 
C 967.073381 483.052149 966.857663 489.641632 967.712486 496.134661 
C 968.567309 502.62769 970.48116 508.936811 973.377733 514.810482 
C 976.274306 520.684153 980.114589 526.043263 984.745471 530.674146 
C 989.376354 535.305029 994.735462 539.145313 1000.609133 542.041887 
C 1006.482803 544.938461 1012.791924 546.852313 1019.284952 547.707137 
C 1025.777981 548.561961 1032.367465 548.346245 1038.790684 547.068588 
C 1045.213903 545.790931 1051.384343 543.468542 1057.055994 540.194015 
L 1027.104 488.315625 
L 1087.008 488.315625 
z
" style="fill: #cfcfcf"/>
   </g>
   <g id="patch_36">
    <path d="M 1057.055994 540.194015 
C 1066.161875 534.936733 1073.725099 527.373511 1078.982383 518.267631 
C 1084.239666 509.16175 1087.007999 498.830196 1087.008 488.315631 
L 1027.104 488.315625 
L 1057.055994 540.194015 
z
" style="fill: #ffb482"/>
   </g>
   <g id="matplotlib.axis_25"/>
   <g id="matplotlib.axis_26"/>
   <g id="text_15">
    <!-- hERG -->
    <g transform="translate(999.87275 424.715625)scale(0.2 -0.2)">
     <defs>
      <path id="ArialMT-68" d="M 422 0 
L 422 4581 
L 984 4581 
L 984 2938 
Q 1378 3394 1978 3394 
Q 2347 3394 2619 3248 
Q 2891 3103 3008 2847 
Q 3125 2591 3125 2103 
L 3125 0 
L 2563 0 
L 2563 2103 
Q 2563 2525 2380 2717 
Q 2197 2909 1863 2909 
Q 1613 2909 1392 2779 
Q 1172 2650 1078 2428 
Q 984 2206 984 1816 
L 984 0 
L 422 0 
z
" transform="scale(0.015625)"/>
      <path id="ArialMT-45" d="M 506 0 
L 506 4581 
L 3819 4581 
L 3819 4041 
L 1113 4041 
L 1113 2638 
L 3647 2638 
L 3647 2100 
L 1113 2100 
L 1113 541 
L 3925 541 
L 3925 0 
L 506 0 
z
" transform="scale(0.015625)"/>
      <path id="ArialMT-52" d="M 503 0 
L 503 4581 
L 2534 4581 
Q 3147 4581 3465 4457 
Q 3784 4334 3975 4021 
Q 4166 3709 4166 3331 
Q 4166 2844 3850 2509 
Q 3534 2175 2875 2084 
Q 3116 1969 3241 1856 
Q 3506 1613 3744 1247 
L 4541 0 
L 3778 0 
L 3172 953 
Q 2906 1366 2734 1584 
Q 2563 1803 2427 1890 
Q 2291 1978 2150 2013 
Q 2047 2034 1813 2034 
L 1109 2034 
L 1109 0 
L 503 0 
z
M 1109 2559 
L 2413 2559 
Q 2828 2559 3062 2645 
Q 3297 2731 3419 2920 
Q 3541 3109 3541 3331 
Q 3541 3656 3305 3865 
Q 3069 4075 2559 4075 
L 1109 4075 
L 1109 2559 
z
" transform="scale(0.015625)"/>
      <path id="ArialMT-47" d="M 2638 1797 
L 2638 2334 
L 4578 2338 
L 4578 638 
Q 4131 281 3656 101 
Q 3181 -78 2681 -78 
Q 2006 -78 1454 211 
Q 903 500 622 1047 
Q 341 1594 341 2269 
Q 341 2938 620 3517 
Q 900 4097 1425 4378 
Q 1950 4659 2634 4659 
Q 3131 4659 3532 4498 
Q 3934 4338 4162 4050 
Q 4391 3763 4509 3300 
L 3963 3150 
Q 3859 3500 3706 3700 
Q 3553 3900 3268 4020 
Q 2984 4141 2638 4141 
Q 2222 4141 1919 4014 
Q 1616 3888 1430 3681 
Q 1244 3475 1141 3228 
Q 966 2803 966 2306 
Q 966 1694 1177 1281 
Q 1388 869 1791 669 
Q 2194 469 2647 469 
Q 3041 469 3416 620 
Q 3791 772 3984 944 
L 3984 1797 
L 2638 1797 
z
" transform="scale(0.015625)"/>
     </defs>
     <use xlink:href="#ArialMT-68"/>
     <use xlink:href="#ArialMT-45" x="55.615234"/>
     <use xlink:href="#ArialMT-52" x="122.314453"/>
     <use xlink:href="#ArialMT-47" x="194.53125"/>
    </g>
   </g>
  </g>
  <g id="axes_14">
   <g id="patch_37">
    <path d="M 127.008 661.115625 
C 127.008 650.601059 124.239668 640.269505 118.982385 631.163624 
C 113.725102 622.057743 106.16188 614.494521 97.055998 609.237238 
L 67.104 661.115625 
L 127.008 661.115625 
z
" style="fill: #a1c9f4"/>
   </g>
   <g id="patch_38">
    <path d="M 97.055998 609.237238 
C 91.384349 605.96271 85.213908 603.640321 78.790689 602.362663 
C 72.367471 601.085006 65.777987 600.869289 59.284958 601.724112 
C 52.791929 602.578936 46.482809 604.492787 40.609138 607.38936 
C 34.735467 610.285934 29.376358 614.126218 24.745475 618.7571 
C 20.114593 623.387983 16.274309 628.747092 13.377735 634.620763 
C 10.481162 640.494434 8.567311 646.803554 7.712487 653.296583 
C 6.857664 659.789612 7.073381 666.379096 8.351038 672.802314 
C 9.628696 679.225533 11.951085 685.395974 15.225613 691.067623 
C 18.500142 696.739273 22.682705 701.835742 27.606547 706.153835 
C 32.530388 710.471929 38.129189 713.953488 44.179729 716.459703 
C 50.230269 718.965919 56.651053 720.463037 63.186088 720.891366 
C 69.721123 721.319695 76.282389 720.673467 82.608292 718.978447 
C 88.934196 717.283426 94.939534 714.562444 100.384876 710.923983 
C 105.830218 707.285522 110.642222 702.778589 114.629036 697.582873 
C 118.615849 692.387157 121.723775 686.572639 123.828901 680.37114 
C 125.934027 674.16964 127.007999 667.664688 127.008 661.115631 
L 67.104 661.115625 
L 97.055998 609.237238 
z
" style="fill: #cfcfcf"/>
   </g>
   <g id="patch_39">
    <path d="M 127.008 661.115631 
C 127.008 661.115631 127.008 661.115631 127.008 661.115631 
L 67.104 661.115625 
L 127.008 661.115631 
z
" style="fill: #ffb482"/>
   </g>
   <g id="matplotlib.axis_27"/>
   <g id="matplotlib.axis_28"/>
   <g id="text_16">
    <!-- Pgp -->
    <g transform="translate(49.311813 597.515625)scale(0.2 -0.2)">
     <defs>
      <path id="ArialMT-50" d="M 494 0 
L 494 4581 
L 2222 4581 
Q 2678 4581 2919 4538 
Q 3256 4481 3484 4323 
Q 3713 4166 3852 3881 
Q 3991 3597 3991 3256 
Q 3991 2672 3619 2267 
Q 3247 1863 2275 1863 
L 1100 1863 
L 1100 0 
L 494 0 
z
M 1100 2403 
L 2284 2403 
Q 2872 2403 3119 2622 
Q 3366 2841 3366 3238 
Q 3366 3525 3220 3729 
Q 3075 3934 2838 4000 
Q 2684 4041 2272 4041 
L 1100 4041 
L 1100 2403 
z
" transform="scale(0.015625)"/>
      <path id="ArialMT-70" d="M 422 -1272 
L 422 3319 
L 934 3319 
L 934 2888 
Q 1116 3141 1344 3267 
Q 1572 3394 1897 3394 
Q 2322 3394 2647 3175 
Q 2972 2956 3137 2557 
Q 3303 2159 3303 1684 
Q 3303 1175 3120 767 
Q 2938 359 2589 142 
Q 2241 -75 1856 -75 
Q 1575 -75 1351 44 
Q 1128 163 984 344 
L 984 -1272 
L 422 -1272 
z
M 931 1641 
Q 931 1000 1190 694 
Q 1450 388 1819 388 
Q 2194 388 2461 705 
Q 2728 1022 2728 1688 
Q 2728 2322 2467 2637 
Q 2206 2953 1844 2953 
Q 1484 2953 1207 2617 
Q 931 2281 931 1641 
z
" transform="scale(0.015625)"/>
     </defs>
     <use xlink:href="#ArialMT-50"/>
     <use xlink:href="#ArialMT-67" x="66.699219"/>
     <use xlink:href="#ArialMT-70" x="122.314453"/>
    </g>
   </g>
  </g>
  <g id="axes_15">
   <g id="patch_40">
    <path d="M 319.008 661.115625 
C 319.008 661.115625 319.008 661.115625 319.008 661.115625 
L 259.104 661.115625 
L 319.008 661.115625 
z
" style="fill: #a1c9f4"/>
   </g>
   <g id="patch_41">
    <path d="M 319.008 661.115625 
C 319.008 661.115625 319.008 661.115625 319.008 661.115625 
L 259.104 661.115625 
L 319.008 661.115625 
z
" style="fill: #cfcfcf"/>
   </g>
   <g id="patch_42">
    <path d="M 319.008 661.115625 
C 319.008 653.249104 317.458467 645.459075 314.44808 638.191357 
C 311.437692 630.923639 307.024995 624.319571 301.462525 618.7571 
C 295.900054 613.19463 289.295986 608.781933 282.028268 605.771545 
C 274.76055 602.761158 266.970521 601.211625 259.104 601.211625 
C 251.237479 601.211625 243.44745 602.761158 236.179732 605.771545 
C 228.912014 608.781933 222.307946 613.19463 216.745475 618.7571 
C 211.183005 624.319571 206.770308 630.923639 203.75992 638.191357 
C 200.749533 645.459075 199.2 653.249104 199.2 661.115625 
C 199.2 668.982146 200.749533 676.772175 203.75992 684.039893 
C 206.770308 691.307611 211.183005 697.911679 216.745475 703.47415 
C 222.307946 709.03662 228.912014 713.449317 236.179732 716.459705 
C 243.44745 719.470092 251.237479 721.019625 259.104 721.019625 
C 266.970521 721.019625 274.76055 719.470092 282.028268 716.459705 
C 289.295986 713.449317 295.900054 709.03662 301.462525 703.47415 
C 307.024995 697.911679 311.437692 691.307611 314.44808 684.039893 
C 317.458467 676.772175 319.008 668.982146 319.008 661.115625 
M 259.104 661.115625 
M 319.008 661.115625 
z
" style="fill: #ffb482"/>
   </g>
   <g id="matplotlib.axis_29"/>
   <g id="matplotlib.axis_30"/>
   <g id="text_17">
    <!-- ClinTox -->
    <g transform="translate(226.321187 597.515625)scale(0.2 -0.2)">
     <defs>
      <path id="ArialMT-54" d="M 1659 0 
L 1659 4041 
L 150 4041 
L 150 4581 
L 3781 4581 
L 3781 4041 
L 2266 4041 
L 2266 0 
L 1659 0 
z
" transform="scale(0.015625)"/>
      <path id="ArialMT-78" d="M 47 0 
L 1259 1725 
L 138 3319 
L 841 3319 
L 1350 2541 
Q 1494 2319 1581 2169 
Q 1719 2375 1834 2534 
L 2394 3319 
L 3066 3319 
L 1919 1756 
L 3153 0 
L 2463 0 
L 1781 1031 
L 1600 1309 
L 728 0 
L 47 0 
z
" transform="scale(0.015625)"/>
     </defs>
     <use xlink:href="#ArialMT-43"/>
     <use xlink:href="#ArialMT-6c" x="72.216797"/>
     <use xlink:href="#ArialMT-69" x="94.433594"/>
     <use xlink:href="#ArialMT-6e" x="116.650391"/>
     <use xlink:href="#ArialMT-54" x="172.265625"/>
     <use xlink:href="#ArialMT-6f" x="222.224609"/>
     <use xlink:href="#ArialMT-78" x="277.839844"/>
    </g>
   </g>
  </g>
  <g id="axes_16">
   <g id="patch_43">
    <path d="M 511.008 661.115625 
C 511.008 661.115625 511.008 661.115625 511.008 661.115625 
L 451.104 661.115625 
L 511.008 661.115625 
z
" style="fill: #a1c9f4"/>
   </g>
   <g id="patch_44">
    <path d="M 511.008 661.115625 
C 511.008 654.566568 509.934028 648.061615 507.828903 641.860116 
C 505.723777 635.658616 502.615852 629.844097 498.629039 624.648381 
C 494.642226 619.452665 489.830222 614.945731 484.38488 611.30727 
C 478.939539 607.668809 472.934201 604.947826 466.608298 603.252805 
C 460.282395 601.557784 453.721128 600.911555 447.186093 601.339884 
C 440.651058 601.768212 434.230274 603.265329 428.179734 605.771544 
C 422.129194 608.27776 416.530393 611.759318 411.606551 616.077411 
C 406.682709 620.395504 402.500145 625.491972 399.225616 631.163622 
C 395.951087 636.835271 393.628697 643.005712 392.351039 649.42893 
C 391.073381 655.852149 390.857663 662.441632 391.712486 668.934661 
C 392.567309 675.42769 394.48116 681.736811 397.377733 687.610482 
C 400.274306 693.484153 404.114589 698.843263 408.745471 703.474146 
C 413.376354 708.105029 418.735462 711.945313 424.609133 714.841887 
C 430.482803 717.738461 436.791924 719.652313 443.284952 720.507137 
C 449.777981 721.361961 456.367465 721.146245 462.790684 719.868588 
C 469.213903 718.590931 475.384343 716.268542 481.055994 712.994015 
L 451.104 661.115625 
L 511.008 661.115625 
z
" style="fill: #cfcfcf"/>
   </g>
   <g id="patch_45">
    <path d="M 481.055994 712.994015 
C 490.161875 707.736733 497.725099 700.173511 502.982383 691.067631 
C 508.239666 681.96175 511.007999 671.630196 511.008 661.115631 
L 451.104 661.115625 
L 481.055994 712.994015 
z
" style="fill: #ffb482"/>
   </g>
   <g id="matplotlib.axis_31"/>
   <g id="matplotlib.axis_32"/>
   <g id="text_18">
    <!-- BACE -->
    <g transform="translate(423.871187 597.515625)scale(0.2 -0.2)">
     <use xlink:href="#ArialMT-42"/>
     <use xlink:href="#ArialMT-41" x="66.699219"/>
     <use xlink:href="#ArialMT-43" x="133.398438"/>
     <use xlink:href="#ArialMT-45" x="205.615234"/>
    </g>
   </g>
  </g>
  <g id="axes_17">
   <g id="patch_46">
    <path d="M 703.008 661.115625 
C 703.008 661.115625 703.008 661.115625 703.008 661.115625 
L 643.104 661.115625 
L 703.008 661.115625 
z
" style="fill: #a1c9f4"/>
   </g>
   <g id="patch_47">
    <path d="M 703.008 661.115625 
C 703.008 654.566568 701.934028 648.061615 699.828903 641.860116 
C 697.723777 635.658616 694.615852 629.844097 690.629039 624.648381 
C 686.642226 619.452665 681.830222 614.945731 676.38488 611.30727 
C 670.939539 607.668809 664.934201 604.947826 658.608298 603.252805 
C 652.282395 601.557784 645.721128 600.911555 639.186093 601.339884 
C 632.651058 601.768212 626.230274 603.265329 620.179734 605.771544 
C 614.129194 608.27776 608.530393 611.759318 603.606551 616.077411 
C 598.682709 620.395504 594.500145 625.491972 591.225616 631.163622 
C 587.951087 636.835271 585.628697 643.005712 584.351039 649.42893 
C 583.073381 655.852149 582.857663 662.441632 583.712486 668.934661 
C 584.567309 675.42769 586.48116 681.736811 589.377733 687.610482 
C 592.274306 693.484153 596.114589 698.843263 600.745471 703.474146 
C 605.376354 708.105029 610.735462 711.945313 616.609133 714.841887 
C 622.482803 717.738461 628.791924 719.652313 635.284952 720.507137 
C 641.777981 721.361961 648.367465 721.146245 654.790684 719.868588 
C 661.213903 718.590931 667.384343 716.268542 673.055994 712.994015 
L 643.104 661.115625 
L 703.008 661.115625 
z
" style="fill: #cfcfcf"/>
   </g>
   <g id="patch_48">
    <path d="M 673.055994 712.994015 
C 682.161875 707.736733 689.725099 700.173511 694.982383 691.067631 
C 700.239666 681.96175 703.007999 671.630196 703.008 661.115631 
L 643.104 661.115625 
L 673.055994 712.994015 
z
" style="fill: #ffb482"/>
   </g>
   <g id="matplotlib.axis_33"/>
   <g id="matplotlib.axis_34"/>
   <g id="text_19">
    <!-- BBBP -->
    <g transform="translate(616.42275 597.515625)scale(0.2 -0.2)">
     <use xlink:href="#ArialMT-42"/>
     <use xlink:href="#ArialMT-42" x="66.699219"/>
     <use xlink:href="#ArialMT-42" x="133.398438"/>
     <use xlink:href="#ArialMT-50" x="200.097656"/>
    </g>
   </g>
  </g>
  <g id="axes_18">
   <g id="patch_49">
    <path d="M 895.008 661.115625 
C 895.008 661.115625 895.008 661.115625 895.008 661.115625 
L 835.104 661.115625 
L 895.008 661.115625 
z
" style="fill: #a1c9f4"/>
   </g>
   <g id="patch_50">
    <path d="M 895.008 661.115625 
C 895.008 650.601059 892.239668 640.269505 886.982385 631.163624 
C 881.725102 622.057743 874.16188 614.494521 865.055998 609.237238 
C 855.950117 603.979956 845.618563 601.211625 835.103997 601.211625 
C 824.589431 601.211625 814.257877 603.979958 805.151997 609.237241 
C 796.046116 614.494525 788.482894 622.057748 783.225612 631.163629 
C 777.96833 640.269511 775.199999 650.601065 775.2 661.115631 
C 775.200001 671.630196 777.968334 681.96175 783.225617 691.067631 
C 788.482901 700.173511 796.046125 707.736733 805.152006 712.994015 
L 835.104 661.115625 
L 895.008 661.115625 
z
" style="fill: #cfcfcf"/>
   </g>
   <g id="patch_51">
    <path d="M 805.152006 712.994015 
C 814.257888 718.251296 824.589443 721.019626 835.104008 721.019625 
C 845.618574 721.019624 855.950128 718.25129 865.056008 712.994006 
C 874.161888 707.736722 881.72511 700.173498 886.982391 691.067616 
C 892.239672 681.961734 895.008002 671.63018 895.008 661.115614 
L 835.104 661.115625 
L 805.152006 712.994015 
z
" style="fill: #ffb482"/>
   </g>
   <g id="matplotlib.axis_35"/>
   <g id="matplotlib.axis_36"/>
   <g id="text_20">
    <!-- Ames -->
    <g transform="translate(809.543063 597.515625)scale(0.2 -0.2)">
     <defs>
      <path id="ArialMT-6d" d="M 422 0 
L 422 3319 
L 925 3319 
L 925 2853 
Q 1081 3097 1340 3245 
Q 1600 3394 1931 3394 
Q 2300 3394 2536 3241 
Q 2772 3088 2869 2813 
Q 3263 3394 3894 3394 
Q 4388 3394 4653 3120 
Q 4919 2847 4919 2278 
L 4919 0 
L 4359 0 
L 4359 2091 
Q 4359 2428 4304 2576 
Q 4250 2725 4106 2815 
Q 3963 2906 3769 2906 
Q 3419 2906 3187 2673 
Q 2956 2441 2956 1928 
L 2956 0 
L 2394 0 
L 2394 2156 
Q 2394 2531 2256 2718 
Q 2119 2906 1806 2906 
Q 1569 2906 1367 2781 
Q 1166 2656 1075 2415 
Q 984 2175 984 1722 
L 984 0 
L 422 0 
z
" transform="scale(0.015625)"/>
     </defs>
     <use xlink:href="#ArialMT-41"/>
     <use xlink:href="#ArialMT-6d" x="66.699219"/>
     <use xlink:href="#ArialMT-65" x="150"/>
     <use xlink:href="#ArialMT-73" x="205.615234"/>
    </g>
   </g>
  </g>
  <g id="axes_19">
   <g id="patch_52">
    <path d="M 1087.008 661.115625 
C 1087.008 661.115625 1087.008 661.115625 1087.008 661.115625 
L 1027.104 661.115625 
L 1087.008 661.115625 
z
" style="fill: #a1c9f4"/>
   </g>
   <g id="patch_53">
    <path d="M 1087.008 661.115625 
C 1087.008 654.566568 1085.934028 648.061615 1083.828903 641.860116 
C 1081.723777 635.658616 1078.615852 629.844097 1074.629039 624.648381 
C 1070.642226 619.452665 1065.830222 614.945731 1060.38488 611.30727 
C 1054.939539 607.668809 1048.934201 604.947826 1042.608298 603.252805 
C 1036.282395 601.557784 1029.721128 600.911555 1023.186093 601.339884 
C 1016.651058 601.768212 1010.230274 603.265329 1004.179734 605.771544 
C 998.129194 608.27776 992.530393 611.759318 987.606551 616.077411 
C 982.682709 620.395504 978.500145 625.491972 975.225616 631.163622 
C 971.951087 636.835271 969.628697 643.005712 968.351039 649.42893 
C 967.073381 655.852149 966.857663 662.441632 967.712486 668.934661 
C 968.567309 675.42769 970.48116 681.736811 973.377733 687.610482 
C 976.274306 693.484153 980.114589 698.843263 984.745471 703.474146 
C 989.376354 708.105029 994.735462 711.945313 1000.609133 714.841887 
C 1006.482803 717.738461 1012.791924 719.652313 1019.284952 720.507137 
C 1025.777981 721.361961 1032.367465 721.146245 1038.790684 719.868588 
C 1045.213903 718.590931 1051.384343 716.268542 1057.055994 712.994015 
L 1027.104 661.115625 
L 1087.008 661.115625 
z
" style="fill: #cfcfcf"/>
   </g>
   <g id="patch_54">
    <path d="M 1057.055994 712.994015 
C 1066.161875 707.736733 1073.725099 700.173511 1078.982383 691.067631 
C 1084.239666 681.96175 1087.007999 671.630196 1087.008 661.115631 
L 1027.104 661.115625 
L 1057.055994 712.994015 
z
" style="fill: #ffb482"/>
   </g>
   <g id="matplotlib.axis_37"/>
   <g id="matplotlib.axis_38"/>
   <g id="text_21">
    <!-- 2C19 -->
    <g transform="translate(1003.199312 597.515625)scale(0.2 -0.2)">
     <defs>
      <path id="ArialMT-39" d="M 350 1059 
L 891 1109 
Q 959 728 1153 556 
Q 1347 384 1650 384 
Q 1909 384 2104 503 
Q 2300 622 2425 820 
Q 2550 1019 2634 1356 
Q 2719 1694 2719 2044 
Q 2719 2081 2716 2156 
Q 2547 1888 2255 1720 
Q 1963 1553 1622 1553 
Q 1053 1553 659 1965 
Q 266 2378 266 3053 
Q 266 3750 677 4175 
Q 1088 4600 1706 4600 
Q 2153 4600 2523 4359 
Q 2894 4119 3086 3673 
Q 3278 3228 3278 2384 
Q 3278 1506 3087 986 
Q 2897 466 2520 194 
Q 2144 -78 1638 -78 
Q 1100 -78 759 220 
Q 419 519 350 1059 
z
M 2653 3081 
Q 2653 3566 2395 3850 
Q 2138 4134 1775 4134 
Q 1400 4134 1122 3828 
Q 844 3522 844 3034 
Q 844 2597 1108 2323 
Q 1372 2050 1759 2050 
Q 2150 2050 2401 2323 
Q 2653 2597 2653 3081 
z
" transform="scale(0.015625)"/>
     </defs>
     <use xlink:href="#ArialMT-32"/>
     <use xlink:href="#ArialMT-43" x="55.615234"/>
     <use xlink:href="#ArialMT-31" x="127.832031"/>
     <use xlink:href="#ArialMT-39" x="183.447266"/>
    </g>
   </g>
   <g id="legend_1">
    <g id="patch_55">
     <path d="M 286.58775 749.945625 
L 334.58775 749.945625 
L 334.58775 733.145625 
L 286.58775 733.145625 
z
" style="fill: #a1c9f4; stroke: #a1c9f4; stroke-linejoin: miter"/>
    </g>
    <g id="text_22">
     <!-- YoDeL &lt; AL -->
     <g transform="translate(353.78775 749.945625)scale(0.24 -0.24)">
      <defs>
       <path id="ArialMT-3c" d="M 350 2003 
L 350 2528 
L 3384 3809 
L 3384 3250 
L 978 2263 
L 3384 1266 
L 3384 706 
L 350 2003 
z
" transform="scale(0.015625)"/>
      </defs>
      <use xlink:href="#ArialMT-59"/>
      <use xlink:href="#ArialMT-6f" x="57.574219"/>
      <use xlink:href="#ArialMT-44" x="113.189453"/>
      <use xlink:href="#ArialMT-65" x="185.40625"/>
      <use xlink:href="#ArialMT-4c" x="241.021484"/>
      <use xlink:href="#ArialMT-20" x="292.886719"/>
      <use xlink:href="#ArialMT-3c" x="320.669922"/>
      <use xlink:href="#ArialMT-20" x="379.068359"/>
      <use xlink:href="#ArialMT-41" x="401.351562"/>
      <use xlink:href="#ArialMT-4c" x="468.050781"/>
     </g>
    </g>
    <g id="patch_56">
     <path d="M 527.46525 749.945625 
L 575.46525 749.945625 
L 575.46525 733.145625 
L 527.46525 733.145625 
z
" style="fill: #cfcfcf; stroke: #cfcfcf; stroke-linejoin: miter"/>
    </g>
    <g id="text_23">
     <!-- YoDeL = AL -->
     <g transform="translate(594.66525 749.945625)scale(0.24 -0.24)">
      <defs>
       <path id="ArialMT-3d" d="M 3381 2694 
L 356 2694 
L 356 3219 
L 3381 3219 
L 3381 2694 
z
M 3381 1303 
L 356 1303 
L 356 1828 
L 3381 1828 
L 3381 1303 
z
" transform="scale(0.015625)"/>
      </defs>
      <use xlink:href="#ArialMT-59"/>
      <use xlink:href="#ArialMT-6f" x="57.574219"/>
      <use xlink:href="#ArialMT-44" x="113.189453"/>
      <use xlink:href="#ArialMT-65" x="185.40625"/>
      <use xlink:href="#ArialMT-4c" x="241.021484"/>
      <use xlink:href="#ArialMT-20" x="292.886719"/>
      <use xlink:href="#ArialMT-3d" x="320.669922"/>
      <use xlink:href="#ArialMT-20" x="379.068359"/>
      <use xlink:href="#ArialMT-41" x="401.351562"/>
      <use xlink:href="#ArialMT-4c" x="468.050781"/>
     </g>
    </g>
    <g id="patch_57">
     <path d="M 768.34275 749.945625 
L 816.34275 749.945625 
L 816.34275 733.145625 
L 768.34275 733.145625 
z
" style="fill: #ffb482; stroke: #ffb482; stroke-linejoin: miter"/>
    </g>
    <g id="text_24">
     <!-- YoDeL &gt; AL -->
     <g transform="translate(835.54275 749.945625)scale(0.24 -0.24)">
      <defs>
       <path id="ArialMT-3e" d="M 3384 2003 
L 350 706 
L 350 1266 
L 2753 2263 
L 350 3250 
L 350 3809 
L 3384 2528 
L 3384 2003 
z
" transform="scale(0.015625)"/>
      </defs>
      <use xlink:href="#ArialMT-59"/>
      <use xlink:href="#ArialMT-6f" x="57.574219"/>
      <use xlink:href="#ArialMT-44" x="113.189453"/>
      <use xlink:href="#ArialMT-65" x="185.40625"/>
      <use xlink:href="#ArialMT-4c" x="241.021484"/>
      <use xlink:href="#ArialMT-20" x="292.886719"/>
      <use xlink:href="#ArialMT-3e" x="320.669922"/>
      <use xlink:href="#ArialMT-20" x="379.068359"/>
      <use xlink:href="#ArialMT-41" x="401.351562"/>
      <use xlink:href="#ArialMT-4c" x="468.050781"/>
     </g>
    </g>
   </g>
  </g>
 </g>
</svg>
